==========
feature_batch_size: 2
sample_batch_size: 3
collect 12 samples for initializing MCTS
collect 4 features for initializing MCTS
dims: 50
min_num_variables: 3
==========

==========
iteration: 0
==========

axis_score argsort: [22 46 18 17 16 35 33 31 30 20 28 12 27 25 23 24 36 37 41 45 26 29 49 19
  1  6  7  2 44 43 42  3 40  0 10 11 13 15 34  8 21  4 38 39  9 14 48 47
 32  5]
total samples: 24
current best f(x): 1.4834279088819329
current best x: [0.39384454 0.41405331 0.80550677 0.07364483 0.16630295 0.94989097
 0.35411379 0.10751692 0.19752045 0.07832879 0.95816243 0.39581123
 0.60228338 0.7034229  0.93321812 0.85159236 0.80213077 0.75015394
 0.54263147 0.94062002 0.76997898 0.22688855 0.51177852 0.79147846
 0.83841202 0.32437012 0.63687467 0.07461636 0.82652737 0.66072278
 0.91695702 0.99540358 0.76184601 0.18297399 0.54669267 0.29449801
 0.3962357  0.86929813 0.2604596  0.36800942 0.91143382 0.18859221
 0.51415944 0.31656733 0.98241776 0.08949162 0.62276704 0.87925267
 0.08260101 0.90486503]

==========
iteration: 1
==========
=> node1 
axis_score argsort: [22 46 18 17 16 35 33 31 30 20 28 12 27 25 23 24 36 37 41 45 26 29 49 19
  6  1  7 15 44 11 43 40 13  9 48  8 34 14  2 42  0  3 10 38 32 47  4 21
 39  5]
total samples: 36
current best f(x): 1.736966132550638
current best x: [0.39420632 0.35645377 0.73860097 0.28909391 0.39806113 0.60041666
 0.35411379 0.77049106 0.9268319  0.52148747 0.73527837 0.49309006
 0.4030436  0.57281909 0.98629189 0.94175732 0.9689374  0.23365638
 0.98017442 0.94062002 0.34100753 0.1208249  0.51177852 0.26659401
 0.44764229 0.51381599 0.55218267 0.12590865 0.99533369 0.53129437
 0.12541986 0.8911159  0.30030474 0.51946808 0.96500236 0.16029388
 0.95368934 0.83087503 0.15745091 0.2648108  0.35279006 0.2419065
 0.03136858 0.07582688 0.80483486 0.03393357 0.22299608 0.46515355
 0.46489716 0.60351778]

==========
iteration: 2
==========
=> node2 
axis_score argsort: [15 44 11 30 28 35 43 40 13 16 25 18 46 17  8 48  9 27 20 33 23 26 41 19
 49 31 22 12 34 14 29 36 37 24  7  6 45  1 42  2  0 10  3 38 47 32 21 39
  5  4]
total samples: 48
current best f(x): 1.736966132550638
current best x: [0.39420632 0.35645377 0.73860097 0.28909391 0.39806113 0.60041666
 0.35411379 0.77049106 0.9268319  0.52148747 0.73527837 0.49309006
 0.4030436  0.57281909 0.98629189 0.94175732 0.9689374  0.23365638
 0.98017442 0.94062002 0.34100753 0.1208249  0.51177852 0.26659401
 0.44764229 0.51381599 0.55218267 0.12590865 0.99533369 0.53129437
 0.12541986 0.8911159  0.30030474 0.51946808 0.96500236 0.16029388
 0.95368934 0.83087503 0.15745091 0.2648108  0.35279006 0.2419065
 0.03136858 0.07582688 0.80483486 0.03393357 0.22299608 0.46515355
 0.46489716 0.60351778]

==========
iteration: 3
==========
=> node1 => node4 
axis_score argsort: [28 35 30 46 18 17 16 25 33 20 27 19 23 49 41 26 12 31 22 29 36 37 24  1
 45  6  7 44 15 11 42  2  0 13  9 48 43 40 14  3 10  8 38 47 32 34 39 21
  5  4]
total samples: 60
current best f(x): 2.3244974220051158
current best x: [0.18712334 0.25079151 0.67037678 0.1553306  0.37733927 0.60041666
 0.08187952 0.77049106 0.40739855 0.61296123 0.84712279 0.58194089
 0.66040194 0.73392773 0.73401582 0.50293803 0.0280356  0.40169252
 0.76601756 0.36065388 0.34100753 0.22580588 0.81146479 0.1166928
 0.54268819 0.39604039 0.63687467 0.12590865 0.82652737 0.5844594
 0.91695702 0.99540358 0.23860112 0.18297399 0.58875275 0.83233732
 0.74724811 0.83087503 0.15745091 0.31175473 0.75304914 0.18859221
 0.8372646  0.33751413 0.89860839 0.08949162 0.54394574 0.82138294
 0.58818728 0.54231656]

==========
iteration: 4
==========
=> node1 => node3 
axis_score argsort: [28 35 30 46 18 17 16 25 33 20 27 19 23 49 41 26 12 31 22 29 36 37 24  7
  6 45  1 44 15 11 13  9 48 43 40 14  8 34  2 42  0  3 38 10 47 32 39  5
 21  4]
total samples: 72
current best f(x): 2.3984187838401194
current best x: [0.22468077 0.25079151 0.70909327 0.24640337 0.27615497 0.56087816
 0.2615779  0.34947443 0.37972251 0.41131946 0.8314563  0.39581123
 0.4030436  0.57281909 0.93321812 0.86215383 0.9689374  0.75015394
 0.54452169 0.36065388 0.58353825 0.52557194 0.51177852 0.1166928
 0.54268819 0.32437012 0.63687467 0.12590865 0.99533369 0.54905844
 0.96906555 0.99540358 0.61889642 0.30422911 0.58875275 0.55145121
 0.74724811 0.91937548 0.15745091 0.02516779 0.0685266  0.18859221
 0.68470818 0.07582688 0.05031496 0.03393357 0.82842662 0.69596254
 0.13268143 0.4445858 ]

==========
iteration: 5
==========
=> node1 => node3 => node10 
axis_score argsort: [28 35 30 46 18 17 16 25 33 20 27 19 23 49 41 26 12 31 22 29 36 37 24 45
  1  7  6 44 15 11 13 48  9 43 40 14  8 34 47 32 39  5  4 21 42  0  2  3
 38 10]
total samples: 84
current best f(x): 2.3984187838401194
current best x: [0.22468077 0.25079151 0.70909327 0.24640337 0.27615497 0.56087816
 0.2615779  0.34947443 0.37972251 0.41131946 0.8314563  0.39581123
 0.4030436  0.57281909 0.93321812 0.86215383 0.9689374  0.75015394
 0.54452169 0.36065388 0.58353825 0.52557194 0.51177852 0.1166928
 0.54268819 0.32437012 0.63687467 0.12590865 0.99533369 0.54905844
 0.96906555 0.99540358 0.61889642 0.30422911 0.58875275 0.55145121
 0.74724811 0.91937548 0.15745091 0.02516779 0.0685266  0.18859221
 0.68470818 0.07582688 0.05031496 0.03393357 0.82842662 0.69596254
 0.13268143 0.4445858 ]

==========
iteration: 6
==========
=> node1 => node3 => node9 
axis_score argsort: [28 35 30 46 18 17 16 25 33 20 27 19 23 49 41 26 12 31 22 29 36 37 24  7
 45  6  1 44 15 11 13  9 48 43 40 14  8 34 47 42  0  4  2 21  3 32 38 10
 39  5]
total samples: 96
current best f(x): 2.852548482450803
current best x: [0.12321815 0.1574153  0.51036328 0.16187125 0.32397857 0.60041666
 0.00988523 0.77049106 0.53134173 0.49363118 0.89947778 0.39581123
 0.66040194 0.58138853 0.23704984 0.50293803 0.9689374  0.42271009
 0.8498137  0.36065388 0.36925635 0.1155695  0.51177852 0.1166928
 0.44764229 0.39604039 0.55218267 0.12590865 0.99533369 0.5844594
 0.92285134 0.8911159  0.10464544 0.42319977 0.74030638 0.16029388
 0.11689237 0.88262653 0.15745091 0.4791308  0.91143382 0.18859221
 0.54305387 0.16920426 0.78845227 0.08920958 0.22299608 0.9879989
 0.08260101 0.28140438]

==========
iteration: 7
==========
=> node1 => node3 => node9 => node14 
axis_score argsort: [28 35 30 46 18 17 16 25 33 20 27 19 23 49 41 26 12 31 22 29 36 37 24  1
  7 45  6 44 15 11 13 48  9 43 40 14  8 34 42  0  2  3 32 38 10 39  5  4
 47 21]
total samples: 102
current best f(x): 3.214020065577288
current best x: [0.18712334 0.1574153  0.51036328 0.28909391 0.32393992 0.60041666
 0.2615779  0.48444599 0.9268319  0.41131946 0.51453441 0.33965647
 0.4419863  0.74025929 0.98629189 0.94175732 0.79442179 0.42271009
 0.98017442 0.94865423 0.34100753 0.23485163 0.51177852 0.1166928
 0.98234242 0.51381599 0.63687467 0.12590865 0.61947092 0.02934425
 0.96906555 0.8911159  0.76184601 0.26745489 0.74030638 0.29449801
 0.74724811 0.84913737 0.41340244 0.59325292 0.91143382 0.18859221
 0.68470818 0.31656733 0.98241776 0.08920958 0.82842662 0.2467414
 0.25053087 0.28140438]

==========
iteration: 8
==========
=> node1 => node3 => node9 => node13 
axis_score argsort: [28 35 30 46 18 17 16 25 33 20 27 19 23 49 41 26 12 31 22 29 36 37 24  1
  7 45  6 44 15 11 13 48  9 43 40 14  8 34 42  0  2  3 38 10  4 47 21 32
  5 39]
total samples: 114
current best f(x): 3.214020065577288
current best x: [0.18712334 0.1574153  0.51036328 0.28909391 0.32393992 0.60041666
 0.2615779  0.48444599 0.9268319  0.41131946 0.51453441 0.33965647
 0.4419863  0.74025929 0.98629189 0.94175732 0.79442179 0.42271009
 0.98017442 0.94865423 0.34100753 0.23485163 0.51177852 0.1166928
 0.98234242 0.51381599 0.63687467 0.12590865 0.61947092 0.02934425
 0.96906555 0.8911159  0.76184601 0.26745489 0.74030638 0.29449801
 0.74724811 0.84913737 0.41340244 0.59325292 0.91143382 0.18859221
 0.68470818 0.31656733 0.98241776 0.08920958 0.82842662 0.2467414
 0.25053087 0.28140438]

==========
iteration: 9
==========
=> node1 => node3 => node9 => node14 
axis_score argsort: [28 35 30 46 18 17 16 25 33 20 27 19 23 49 41 26 12 31 22 29 36 37 24  1
  7 45  6 44 15 11 13 48  9 43 40 14  8 34 42  0  2  3 38 10  4 32  5 21
 47 39]
total samples: 120
current best f(x): 3.214020065577288
current best x: [0.18712334 0.1574153  0.51036328 0.28909391 0.32393992 0.60041666
 0.2615779  0.48444599 0.9268319  0.41131946 0.51453441 0.33965647
 0.4419863  0.74025929 0.98629189 0.94175732 0.79442179 0.42271009
 0.98017442 0.94865423 0.34100753 0.23485163 0.51177852 0.1166928
 0.98234242 0.51381599 0.63687467 0.12590865 0.61947092 0.02934425
 0.96906555 0.8911159  0.76184601 0.26745489 0.74030638 0.29449801
 0.74724811 0.84913737 0.41340244 0.59325292 0.91143382 0.18859221
 0.68470818 0.31656733 0.98241776 0.08920958 0.82842662 0.2467414
 0.25053087 0.28140438]

==========
iteration: 10
==========
rebuild the tree

axis_score argsort: [26 31 22 29  7 28 35 46 27 33 41 16 13 17 25 36 24 20 40  1 15  6 30 18
 14 43 19 23 49 48  9 12 44 37  8 11 45 34 38  0  2 10  4  3 42  5 39 32
 21 47]
total samples: 132
current best f(x): 3.214020065577288
current best x: [0.18712334 0.1574153  0.51036328 0.28909391 0.32393992 0.60041666
 0.2615779  0.48444599 0.9268319  0.41131946 0.51453441 0.33965647
 0.4419863  0.74025929 0.98629189 0.94175732 0.79442179 0.42271009
 0.98017442 0.94865423 0.34100753 0.23485163 0.51177852 0.1166928
 0.98234242 0.51381599 0.63687467 0.12590865 0.61947092 0.02934425
 0.96906555 0.8911159  0.76184601 0.26745489 0.74030638 0.29449801
 0.74724811 0.84913737 0.41340244 0.59325292 0.91143382 0.18859221
 0.68470818 0.31656733 0.98241776 0.08920958 0.82842662 0.2467414
 0.25053087 0.28140438]

==========
iteration: 11
==========
rebuild the tree

axis_score argsort: [31 22 29  7 28 25 24 27 18 26 14 20 23 48 12  1 13 40 19 36 15 34 35 45
 46  6 33 41  0  9 16 17 44 49 11 43  2  4 30  8  3 37 10 38 39 32 47 42
  5 21]
total samples: 144
current best f(x): 3.214020065577288
current best x: [0.18712334 0.1574153  0.51036328 0.28909391 0.32393992 0.60041666
 0.2615779  0.48444599 0.9268319  0.41131946 0.51453441 0.33965647
 0.4419863  0.74025929 0.98629189 0.94175732 0.79442179 0.42271009
 0.98017442 0.94865423 0.34100753 0.23485163 0.51177852 0.1166928
 0.98234242 0.51381599 0.63687467 0.12590865 0.61947092 0.02934425
 0.96906555 0.8911159  0.76184601 0.26745489 0.74030638 0.29449801
 0.74724811 0.84913737 0.41340244 0.59325292 0.91143382 0.18859221
 0.68470818 0.31656733 0.98241776 0.08920958 0.82842662 0.2467414
 0.25053087 0.28140438]

==========
iteration: 12
==========
rebuild the tree

axis_score argsort: [ 7 28 31 22 29 27 26 23 25 24 13 14 48 19 15 18 20 12 34 35  1  6  0 45
 40 33 17 49 11  4 36 43  9 46 30  8 41 44  3 16  2 10 39 47  5 38 37 32
 42 21]
total samples: 156
current best f(x): 3.214020065577288
current best x: [0.18712334 0.1574153  0.51036328 0.28909391 0.32393992 0.60041666
 0.2615779  0.48444599 0.9268319  0.41131946 0.51453441 0.33965647
 0.4419863  0.74025929 0.98629189 0.94175732 0.79442179 0.42271009
 0.98017442 0.94865423 0.34100753 0.23485163 0.51177852 0.1166928
 0.98234242 0.51381599 0.63687467 0.12590865 0.61947092 0.02934425
 0.96906555 0.8911159  0.76184601 0.26745489 0.74030638 0.29449801
 0.74724811 0.84913737 0.41340244 0.59325292 0.91143382 0.18859221
 0.68470818 0.31656733 0.98241776 0.08920958 0.82842662 0.2467414
 0.25053087 0.28140438]

==========
iteration: 13
==========
rebuild the tree

axis_score argsort: [ 7 28 31 22 26 25 29 19 27 23  1  0 13 45 24 12 35 14 15 11 33  4 48 17
 20 18 34 40 44  3  6 16 49  9 43  8 36 30 47  2 46 38 37 41 39 10 42  5
 21 32]
total samples: 168
current best f(x): 3.214020065577288
current best x: [0.18712334 0.1574153  0.51036328 0.28909391 0.32393992 0.60041666
 0.2615779  0.48444599 0.9268319  0.41131946 0.51453441 0.33965647
 0.4419863  0.74025929 0.98629189 0.94175732 0.79442179 0.42271009
 0.98017442 0.94865423 0.34100753 0.23485163 0.51177852 0.1166928
 0.98234242 0.51381599 0.63687467 0.12590865 0.61947092 0.02934425
 0.96906555 0.8911159  0.76184601 0.26745489 0.74030638 0.29449801
 0.74724811 0.84913737 0.41340244 0.59325292 0.91143382 0.18859221
 0.68470818 0.31656733 0.98241776 0.08920958 0.82842662 0.2467414
 0.25053087 0.28140438]

==========
iteration: 14
==========
rebuild the tree

axis_score argsort: [28  7  1 19 22  0 27 23 33 31 24  4 48 17 26 20 15 25 40  3 29 45 14  2
 13 49  9 37 47 12 11 35 34 18  5 44 21 43  8  6 36 16 30 39 38 41 42 10
 32 46]
total samples: 180
current best f(x): 3.214020065577288
current best x: [0.18712334 0.1574153  0.51036328 0.28909391 0.32393992 0.60041666
 0.2615779  0.48444599 0.9268319  0.41131946 0.51453441 0.33965647
 0.4419863  0.74025929 0.98629189 0.94175732 0.79442179 0.42271009
 0.98017442 0.94865423 0.34100753 0.23485163 0.51177852 0.1166928
 0.98234242 0.51381599 0.63687467 0.12590865 0.61947092 0.02934425
 0.96906555 0.8911159  0.76184601 0.26745489 0.74030638 0.29449801
 0.74724811 0.84913737 0.41340244 0.59325292 0.91143382 0.18859221
 0.68470818 0.31656733 0.98241776 0.08920958 0.82842662 0.2467414
 0.25053087 0.28140438]

==========
iteration: 15
==========
rebuild the tree

axis_score argsort: [28  7 22  1  0  4 19 24 27 31 17 48 33 23 26 15 20  3 40 25 14  2 49 29
 47 45 13  9 37 11 12 34 35  5 18 44 21 43  8 16  6 30 36 39 38 41 42 10
 32 46]
total samples: 192
current best f(x): 3.214020065577288
current best x: [0.18712334 0.1574153  0.51036328 0.28909391 0.32393992 0.60041666
 0.2615779  0.48444599 0.9268319  0.41131946 0.51453441 0.33965647
 0.4419863  0.74025929 0.98629189 0.94175732 0.79442179 0.42271009
 0.98017442 0.94865423 0.34100753 0.23485163 0.51177852 0.1166928
 0.98234242 0.51381599 0.63687467 0.12590865 0.61947092 0.02934425
 0.96906555 0.8911159  0.76184601 0.26745489 0.74030638 0.29449801
 0.74724811 0.84913737 0.41340244 0.59325292 0.91143382 0.18859221
 0.68470818 0.31656733 0.98241776 0.08920958 0.82842662 0.2467414
 0.25053087 0.28140438]

==========
iteration: 16
==========
rebuild the tree

axis_score argsort: [28  7 22  1  0  4 27 15 26 20  3 40 25 24 19 48 17 31 33  2 23 47 34 12
 14 18 29 21 49 13  9 45 11 43 37  5  6 35 39 44 38 46 10 41  8 16 36 30
 32 42]
total samples: 204
current best f(x): 3.214020065577288
current best x: [0.18712334 0.1574153  0.51036328 0.28909391 0.32393992 0.60041666
 0.2615779  0.48444599 0.9268319  0.41131946 0.51453441 0.33965647
 0.4419863  0.74025929 0.98629189 0.94175732 0.79442179 0.42271009
 0.98017442 0.94865423 0.34100753 0.23485163 0.51177852 0.1166928
 0.98234242 0.51381599 0.63687467 0.12590865 0.61947092 0.02934425
 0.96906555 0.8911159  0.76184601 0.26745489 0.74030638 0.29449801
 0.74724811 0.84913737 0.41340244 0.59325292 0.91143382 0.18859221
 0.68470818 0.31656733 0.98241776 0.08920958 0.82842662 0.2467414
 0.25053087 0.28140438]

==========
iteration: 17
==========
rebuild the tree

axis_score argsort: [ 7  4 28 22  1 27  3  0 26 25 17 31 48 15 33  2 40 20 12 19 24 14 21 45
 23 47 11 34  6 37 18 46 29  9 39 38 43 13 49 16  5 35 36 41 44 10  8 32
 30 42]
total samples: 216
current best f(x): 3.214020065577288
current best x: [0.18712334 0.1574153  0.51036328 0.28909391 0.32393992 0.60041666
 0.2615779  0.48444599 0.9268319  0.41131946 0.51453441 0.33965647
 0.4419863  0.74025929 0.98629189 0.94175732 0.79442179 0.42271009
 0.98017442 0.94865423 0.34100753 0.23485163 0.51177852 0.1166928
 0.98234242 0.51381599 0.63687467 0.12590865 0.61947092 0.02934425
 0.96906555 0.8911159  0.76184601 0.26745489 0.74030638 0.29449801
 0.74724811 0.84913737 0.41340244 0.59325292 0.91143382 0.18859221
 0.68470818 0.31656733 0.98241776 0.08920958 0.82842662 0.2467414
 0.25053087 0.28140438]

==========
iteration: 18
==========
rebuild the tree

axis_score argsort: [ 7  4 22 28  1 27  3  0 26 25 17  2 19 14 40 20 12 23 31 48 15 11  6 33
 47 21 46 29 43 34 16 24 37 18 45  9 38 39 36  5 13 44 49  8 41 35 30 10
 42 32]
total samples: 228
current best f(x): 3.214020065577288
current best x: [0.18712334 0.1574153  0.51036328 0.28909391 0.32393992 0.60041666
 0.2615779  0.48444599 0.9268319  0.41131946 0.51453441 0.33965647
 0.4419863  0.74025929 0.98629189 0.94175732 0.79442179 0.42271009
 0.98017442 0.94865423 0.34100753 0.23485163 0.51177852 0.1166928
 0.98234242 0.51381599 0.63687467 0.12590865 0.61947092 0.02934425
 0.96906555 0.8911159  0.76184601 0.26745489 0.74030638 0.29449801
 0.74724811 0.84913737 0.41340244 0.59325292 0.91143382 0.18859221
 0.68470818 0.31656733 0.98241776 0.08920958 0.82842662 0.2467414
 0.25053087 0.28140438]

==========
iteration: 19
==========
rebuild the tree

axis_score argsort: [ 4  7 22  1 27 28  0  3 26 19 25 40 23 17 14  2 20 12 47 48 15 11 33 43
 21 31 16 24 18  6  9 29 34 45 46 38 44 37  5 39 13 36  8 49 35 30 41 10
 42 32]
total samples: 240
current best f(x): 3.214020065577288
current best x: [0.18712334 0.1574153  0.51036328 0.28909391 0.32393992 0.60041666
 0.2615779  0.48444599 0.9268319  0.41131946 0.51453441 0.33965647
 0.4419863  0.74025929 0.98629189 0.94175732 0.79442179 0.42271009
 0.98017442 0.94865423 0.34100753 0.23485163 0.51177852 0.1166928
 0.98234242 0.51381599 0.63687467 0.12590865 0.61947092 0.02934425
 0.96906555 0.8911159  0.76184601 0.26745489 0.74030638 0.29449801
 0.74724811 0.84913737 0.41340244 0.59325292 0.91143382 0.18859221
 0.68470818 0.31656733 0.98241776 0.08920958 0.82842662 0.2467414
 0.25053087 0.28140438]
[30. 26. 30. 30. 31. 32. 26. 26. 28. 28. 30. 28. 26. 28. 28. 28. 26. 26.
 26. 26. 26. 32. 26. 26. 26. 26. 26. 26. 26. 26. 26. 26. 32. 26. 28. 26.
 26. 26. 30. 32. 28. 26. 30. 28. 28. 26. 26. 32. 28. 26.]
[1.24381202 1.21660552 1.33655349 1.24748547 1.14404512 1.46369468
 1.40235945 1.15822655 1.48629409 1.40681373 1.54804511 1.37303455
 1.34316179 1.47219256 1.32629486 1.3514759  1.39386167 1.32593318
 1.4011514  1.28565268 1.34002607 1.38387003 1.1848874  1.32003484
 1.39392014 1.29847161 1.28286746 1.21906153 1.23660355 1.40785634
 1.52929993 1.38554664 1.60039334 1.37824234 1.41443612 1.50936266
 1.48628655 1.46308563 1.43375264 1.47078229 1.30789711 1.5343263
 1.55060856 1.38356683 1.43786011 1.43041149 1.43043906 1.34881283
 1.35028311 1.50851949]
[ 4  7 22  1 27 28  0  3 26 19 25 40 23 17 14  2 20 12 47 48 15 11 33 43
 21 31 16 24 18  6  9 29 34 45 46 38 44 37  5 39 13 36  8 49 35 30 41 10
 42 32]
